<svg xmlns="http://www.w3.org/2000/svg" width="9.317" height="12.787" viewBox="0 0 9.317 12.787">
  <g id="address" transform="translate(-82 -113)">
    <g id="Path_617" data-name="Path 617" transform="translate(82 113)" fill="#b1b1b1">
      <path d="M 4.658596038818359 12.07431030273438 C 3.237098217010498 10.59337711334229 0.4999960362911224 7.321657657623291 0.4999960362911224 5.285540580749512 C 0.4999960362911224 2.646780490875244 2.365535974502563 0.500000536441803 4.658596038818359 0.500000536441803 C 6.951655864715576 0.500000536441803 8.817195892333984 2.646780490875244 8.817195892333984 5.285540580749512 C 8.817195892333984 7.321657657623291 6.080093860626221 10.59337711334229 4.658596038818359 12.07431030273438 Z" stroke="none"/>
      <path d="M 4.658596038818359 1.000000953674316 C 2.641235828399658 1.000000953674316 0.9999961853027344 2.922490119934082 0.9999961853027344 5.285540580749512 C 0.9999961853027344 6.238780498504639 1.748435974121094 7.736310482025146 3.107456207275391 9.502260208129883 C 3.668081283569336 10.23075485229492 4.234146118164063 10.87654304504395 4.658594608306885 11.33876991271973 C 5.083056449890137 10.87652492523193 5.649178504943848 10.23066711425781 6.209735870361328 9.502260208129883 C 7.568756103515625 7.736310482025146 8.317195892333984 6.238780498504639 8.317195892333984 5.285540580749512 C 8.317195892333984 2.922490119934082 6.675955772399902 1.000000953674316 4.658596038818359 1.000000953674316 M 4.658596038818359 9.5367431640625e-07 C 7.231466293334961 9.5367431640625e-07 9.317195892333984 2.366420745849609 9.317195892333984 5.285540580749512 C 9.317195892333984 8.204660415649414 4.658596038818359 12.78662014007568 4.658596038818359 12.78662014007568 C 4.658596038818359 12.78662014007568 -3.814697265625e-06 8.204660415649414 -3.814697265625e-06 5.285540580749512 C -3.814697265625e-06 2.366420745849609 2.085726261138916 9.5367431640625e-07 4.658596038818359 9.5367431640625e-07 Z" stroke="none" fill="#afafaf"/>
    </g>
    <circle id="Ellipse_310" data-name="Ellipse 310" cx="1.626" cy="1.626" r="1.626" transform="translate(85.253 116.253)" fill="#fff"/>
  </g>
</svg>
