<svg xmlns="http://www.w3.org/2000/svg" width="41.659" height="41.659" viewBox="0 0 41.659 41.659">
  <g id="edit_event" transform="translate(-314.341 -101.713)">
    <path id="Path_606" data-name="Path 606" d="M13.364,1.421C14.45-.408,18.35-.5,19.436,1.324L33.9,15.792s-9.351,9.466-17.826,9.215S0,14.785,0,14.785Z" transform="translate(332.026 101.713) rotate(45)" fill="#a7dade"/>
    <g id="Group_699" data-name="Group 699" transform="translate(-1 1)">
      <path id="Path_618" data-name="Path 618" d="M6939.465,4694.646l9.4-10.256Z" transform="translate(-6607.119 -4569)" fill="none" stroke="#fff" stroke-linecap="round" stroke-linejoin="round" stroke-width="2"/>
      <g id="Polygon_122" data-name="Polygon 122" transform="matrix(-0.695, -0.719, 0.719, -0.695, 329.744, 130.315)" fill="#fff">
        <path d="M 2.278500080108643 3.49999737739563 L 0.7214999794960022 3.49999737739563 L 1.49978244304657 1.424577236175537 L 1.500211238861084 1.424577236175537 L 2.278500080108643 3.49999737739563 Z" stroke="none"/>
        <path d="M 1.5 0.9240021705627441 C 1.693527460098267 0.9240021705627441 1.887055039405823 1.032147169113159 1.968160033226013 1.248437166213989 L 2.746659994125366 3.324437141418457 C 2.869240045547485 3.651317119598389 2.627599954605103 3.999997138977051 2.278500080108643 3.999997138977051 L 0.7214999198913574 3.999997138977051 C 0.3724000453948975 3.999997138977051 0.1307599544525146 3.651317119598389 0.2533400058746338 3.324437141418457 L 1.031839966773987 1.248437166213989 C 1.112944960594177 1.032147169113159 1.306472539901733 0.9240021705627441 1.5 0.9240021705627441 Z" stroke="none" fill="#fff"/>
      </g>
    </g>
  </g>
</svg>
