<svg xmlns="http://www.w3.org/2000/svg" xmlns:xlink="http://www.w3.org/1999/xlink" width="183.5" height="194" viewBox="0 0 183.5 194">
  <defs>
    <clipPath id="clip-path">
      <circle id="Ellipse_291" data-name="Ellipse 291" cx="89" cy="89" r="89" transform="translate(79 127)" fill="#266f63"/>
    </clipPath>
    <filter id="_" x="4.5" y="92" width="58" height="79" filterUnits="userSpaceOnUse">
      <feOffset dy="3" input="SourceAlpha"/>
      <feGaussianBlur stdDeviation="3" result="blur"/>
      <feFlood flood-opacity="0"/>
      <feComposite operator="in" in2="blur"/>
      <feComposite in="SourceGraphic"/>
    </filter>
    <filter id="_2" x="116.5" y="106" width="46" height="58" filterUnits="userSpaceOnUse">
      <feOffset dy="3" input="SourceAlpha"/>
      <feGaussianBlur stdDeviation="3" result="blur-2"/>
      <feFlood flood-opacity="0"/>
      <feComposite operator="in" in2="blur-2"/>
      <feComposite in="SourceGraphic"/>
    </filter>
    <filter id="_3" x="129.5" y="38" width="54" height="72" filterUnits="userSpaceOnUse">
      <feOffset dy="3" input="SourceAlpha"/>
      <feGaussianBlur stdDeviation="3" result="blur-3"/>
      <feFlood flood-opacity="0"/>
      <feComposite operator="in" in2="blur-3"/>
      <feComposite in="SourceGraphic"/>
    </filter>
    <filter id="_4" x="26.5" y="19" width="34" height="39" filterUnits="userSpaceOnUse">
      <feOffset dy="3" input="SourceAlpha"/>
      <feGaussianBlur stdDeviation="3" result="blur-4"/>
      <feFlood flood-opacity="0"/>
      <feComposite operator="in" in2="blur-4"/>
      <feComposite in="SourceGraphic"/>
    </filter>
    <filter id="_5" x="101.5" y="142" width="34" height="39" filterUnits="userSpaceOnUse">
      <feOffset dy="3" input="SourceAlpha"/>
      <feGaussianBlur stdDeviation="3" result="blur-5"/>
      <feFlood flood-opacity="0"/>
      <feComposite operator="in" in2="blur-5"/>
      <feComposite in="SourceGraphic"/>
    </filter>
    <filter id="_6" x="141.5" y="86" width="38" height="48" filterUnits="userSpaceOnUse">
      <feOffset dy="3" input="SourceAlpha"/>
      <feGaussianBlur stdDeviation="3" result="blur-6"/>
      <feFlood flood-opacity="0"/>
      <feComposite operator="in" in2="blur-6"/>
      <feComposite in="SourceGraphic"/>
    </filter>
    <filter id="_7" x="54.5" y="119" width="56" height="75" filterUnits="userSpaceOnUse">
      <feOffset dy="3" input="SourceAlpha"/>
      <feGaussianBlur stdDeviation="3" result="blur-7"/>
      <feFlood flood-opacity="0"/>
      <feComposite operator="in" in2="blur-7"/>
      <feComposite in="SourceGraphic"/>
    </filter>
    <filter id="_8" x="1.5" y="63" width="42" height="53" filterUnits="userSpaceOnUse">
      <feOffset dy="3" input="SourceAlpha"/>
      <feGaussianBlur stdDeviation="3" result="blur-8"/>
      <feFlood flood-opacity="0"/>
      <feComposite operator="in" in2="blur-8"/>
      <feComposite in="SourceGraphic"/>
    </filter>
    <filter id="_9" x="79.5" y="0" width="44" height="55" filterUnits="userSpaceOnUse">
      <feOffset dy="3" input="SourceAlpha"/>
      <feGaussianBlur stdDeviation="3" result="blur-9"/>
      <feFlood flood-opacity="0"/>
      <feComposite operator="in" in2="blur-9"/>
      <feComposite in="SourceGraphic"/>
    </filter>
  </defs>
  <g id="logo" transform="translate(-79 -123.5)">
    <circle id="Ellipse_290" data-name="Ellipse 290" cx="89" cy="89" r="89" transform="translate(79 127)" fill="#7bc98b"/>
    <g id="Mask_Group_43" data-name="Mask Group 43" clip-path="url(#clip-path)">
      <path id="Path_601" data-name="Path 601" d="M0,0H157L123.94,156.815,0,126Z" transform="translate(214.188 174.042) rotate(49)" fill="#1e7768" opacity="0.3"/>
    </g>
    <g id="Rectangle_307" data-name="Rectangle 307" transform="translate(116 186)" fill="#6fcdbd" stroke="#6fcdbd" stroke-width="1">
      <rect width="102" height="11" stroke="none"/>
      <rect x="0.5" y="0.5" width="101" height="10" fill="none"/>
    </g>
    <g transform="matrix(1, 0, 0, 1, 79, 123.5)" filter="url(#_)">
      <text id="_10" data-name="★" transform="translate(33.5 146)" fill="#fff" stroke="#fff" stroke-width="1" font-size="46" font-family="MicrosoftYaHeiUI, Microsoft YaHei UI" opacity="0.37"><tspan x="-18.766" y="0">★</tspan></text>
    </g>
    <g transform="matrix(1, 0, 0, 1, 79, 123.5)" filter="url(#_2)">
      <text id="_11" data-name="★" transform="translate(139.5 143)" fill="#fff" stroke="#fff" stroke-width="1" font-size="30" font-family="MicrosoftYaHeiUI, Microsoft YaHei UI" opacity="0.37"><tspan x="-12.239" y="0">★</tspan></text>
    </g>
    <g id="Group_654" data-name="Group 654">
      <g id="Rectangle_305" data-name="Rectangle 305" transform="translate(119 194)" fill="#fff" stroke="#fff" stroke-linecap="round" stroke-width="3">
        <path d="M0,0H96a0,0,0,0,1,0,0V56a5,5,0,0,1-5,5H5a5,5,0,0,1-5-5V0A0,0,0,0,1,0,0Z" stroke="none"/>
        <path d="M0-1.5H96A1.5,1.5,0,0,1,97.5,0V56A6.5,6.5,0,0,1,91,62.5H5A6.5,6.5,0,0,1-1.5,56V0A1.5,1.5,0,0,1,0-1.5Z" fill="none"/>
      </g>
      <g id="Rectangle_306" data-name="Rectangle 306" transform="translate(119 176)" fill="#fff" stroke="#fff" stroke-linecap="round" stroke-width="3">
        <path d="M5,0H91a5,5,0,0,1,5,5v5a0,0,0,0,1,0,0H0a0,0,0,0,1,0,0V5A5,5,0,0,1,5,0Z" stroke="none"/>
        <path d="M5-1.5H91A6.5,6.5,0,0,1,97.5,5v5A1.5,1.5,0,0,1,96,11.5H0A1.5,1.5,0,0,1-1.5,10V5A6.5,6.5,0,0,1,5-1.5Z" fill="none"/>
      </g>
      <g id="Group_653" data-name="Group 653" transform="translate(-41 6)">
        <line id="Line_1" data-name="Line 1" x2="16.76" y2="20.112" transform="translate(185 213.056)" fill="none" stroke="#6fcdbd" stroke-linecap="round" stroke-width="5"/>
        <line id="Line_2" data-name="Line 2" y1="30.168" x2="30.168" transform="translate(201.76 203)" fill="none" stroke="#6fcdbd" stroke-linecap="round" stroke-width="5"/>
      </g>
      <line id="Line_296" data-name="Line 296" y2="14" transform="translate(130.5 165.5)" fill="none" stroke="#fff" stroke-linecap="round" stroke-width="4"/>
      <line id="Line_297" data-name="Line 297" y2="14" transform="translate(137.5 165.5)" fill="none" stroke="#fff" stroke-linecap="round" stroke-width="4"/>
      <line id="Line_298" data-name="Line 298" y2="14" transform="translate(197.5 165.5)" fill="none" stroke="#fff" stroke-linecap="round" stroke-width="4"/>
      <line id="Line_299" data-name="Line 299" y2="14" transform="translate(204.5 165.5)" fill="none" stroke="#fff" stroke-linecap="round" stroke-width="4"/>
    </g>
    <g transform="matrix(1, 0, 0, 1, 79, 123.5)" filter="url(#_3)">
      <text id="_12" data-name="★" transform="translate(156.5 87)" fill="#fff" stroke="#fff" stroke-width="1" font-size="41" font-family="MicrosoftYaHeiUI, Microsoft YaHei UI" opacity="0.37"><tspan x="-16.726" y="0">★</tspan></text>
    </g>
    <g transform="matrix(1, 0, 0, 1, 79, 123.5)" filter="url(#_4)">
      <text id="_13" data-name="★" transform="translate(43.5 41)" fill="#fff" stroke="#fff" stroke-width="1" font-size="15" font-family="MicrosoftYaHeiUI, Microsoft YaHei UI" opacity="0.37"><tspan x="-6.119" y="0">★</tspan></text>
    </g>
    <g transform="matrix(1, 0, 0, 1, 79, 123.5)" filter="url(#_5)">
      <text id="_14" data-name="★" transform="translate(118.5 164)" fill="#fff" stroke="#fff" stroke-width="1" font-size="15" font-family="MicrosoftYaHeiUI, Microsoft YaHei UI" opacity="0.37"><tspan x="-6.119" y="0">★</tspan></text>
    </g>
    <g transform="matrix(1, 0, 0, 1, 79, 123.5)" filter="url(#_6)">
      <text id="_15" data-name="★" transform="translate(160.5 115)" fill="#fff" stroke="#fff" stroke-width="1" font-size="22" font-family="MicrosoftYaHeiUI, Microsoft YaHei UI" opacity="0.37"><tspan x="-8.975" y="0">★</tspan></text>
    </g>
    <g transform="matrix(1, 0, 0, 1, 79, 123.5)" filter="url(#_7)">
      <text id="_16" data-name="★" transform="translate(82.5 170)" fill="#fff" stroke="#fff" stroke-width="1" font-size="43" font-family="MicrosoftYaHeiUI, Microsoft YaHei UI" opacity="0.37"><tspan x="-17.542" y="0">★</tspan></text>
    </g>
    <g transform="matrix(1, 0, 0, 1, 79, 123.5)" filter="url(#_8)">
      <text id="_17" data-name="★" transform="translate(22.5 96)" fill="#fff" stroke="#fff" stroke-width="1" font-size="26" font-family="MicrosoftYaHeiUI, Microsoft YaHei UI" opacity="0.37"><tspan x="-10.607" y="0">★</tspan></text>
    </g>
    <g transform="matrix(1, 0, 0, 1, 79, 123.5)" filter="url(#_9)">
      <text id="_18" data-name="★" transform="translate(101.5 35)" fill="#fff" stroke="#fff" stroke-width="1" font-size="28" font-family="MicrosoftYaHeiUI, Microsoft YaHei UI" opacity="0.37"><tspan x="-11.423" y="0">★</tspan></text>
    </g>
  </g>
</svg>
